<mxfile host="app.diagrams.net" modified="2023-12-13T12:11:18.635Z" agent="Mozilla/5.0 (Macintosh; Intel Mac OS X 10_15_7) AppleWebKit/537.36 (KHTML, like Gecko) Chrome/120.0.0.0 Safari/537.36" etag="rmTKrdJg1DgBQA4M4nfk" version="22.1.7" type="github">
  <diagram id="R2lEEEUBdFMjLlhIrx00" name="Page-1">
    <mxGraphModel dx="1146" dy="713" grid="1" gridSize="10" guides="1" tooltips="1" connect="1" arrows="1" fold="1" page="1" pageScale="1" pageWidth="850" pageHeight="1100" math="0" shadow="0" extFonts="Permanent Marker^https://fonts.googleapis.com/css?family=Permanent+Marker">
      <root>
        <mxCell id="0" />
        <mxCell id="1" parent="0" />
        <mxCell id="daJVjkobpXh8JB62FJom-2" value="User" style="shape=umlActor;verticalLabelPosition=bottom;verticalAlign=top;html=1;outlineConnect=0;" vertex="1" parent="1">
          <mxGeometry x="90" y="90" width="30" height="60" as="geometry" />
        </mxCell>
        <mxCell id="daJVjkobpXh8JB62FJom-5" style="edgeStyle=orthogonalEdgeStyle;rounded=0;orthogonalLoop=1;jettySize=auto;html=1;entryX=0.013;entryY=0.414;entryDx=0;entryDy=0;entryPerimeter=0;" edge="1" parent="1" source="daJVjkobpXh8JB62FJom-2">
          <mxGeometry relative="1" as="geometry">
            <mxPoint x="221.03999999999996" y="118.98000000000002" as="targetPoint" />
          </mxGeometry>
        </mxCell>
        <mxCell id="daJVjkobpXh8JB62FJom-8" style="edgeStyle=orthogonalEdgeStyle;rounded=0;orthogonalLoop=1;jettySize=auto;html=1;entryX=0;entryY=0.5;entryDx=0;entryDy=0;" edge="1" parent="1" source="daJVjkobpXh8JB62FJom-6" target="daJVjkobpXh8JB62FJom-7">
          <mxGeometry relative="1" as="geometry" />
        </mxCell>
        <mxCell id="daJVjkobpXh8JB62FJom-6" value="Login" style="rounded=1;whiteSpace=wrap;html=1;" vertex="1" parent="1">
          <mxGeometry x="220" y="90" width="120" height="60" as="geometry" />
        </mxCell>
        <mxCell id="daJVjkobpXh8JB62FJom-17" style="edgeStyle=orthogonalEdgeStyle;rounded=0;orthogonalLoop=1;jettySize=auto;html=1;entryX=0.5;entryY=0;entryDx=0;entryDy=0;" edge="1" parent="1" source="daJVjkobpXh8JB62FJom-7" target="daJVjkobpXh8JB62FJom-16">
          <mxGeometry relative="1" as="geometry" />
        </mxCell>
        <mxCell id="daJVjkobpXh8JB62FJom-36" value="NO" style="edgeLabel;html=1;align=center;verticalAlign=middle;resizable=0;points=[];" vertex="1" connectable="0" parent="daJVjkobpXh8JB62FJom-17">
          <mxGeometry x="-0.1919" y="2" relative="1" as="geometry">
            <mxPoint as="offset" />
          </mxGeometry>
        </mxCell>
        <mxCell id="daJVjkobpXh8JB62FJom-7" value="Is Manager" style="rhombus;whiteSpace=wrap;html=1;" vertex="1" parent="1">
          <mxGeometry x="400" y="80" width="80" height="80" as="geometry" />
        </mxCell>
        <mxCell id="daJVjkobpXh8JB62FJom-20" style="edgeStyle=orthogonalEdgeStyle;rounded=0;orthogonalLoop=1;jettySize=auto;html=1;exitX=0.5;exitY=1;exitDx=0;exitDy=0;entryX=0.5;entryY=0;entryDx=0;entryDy=0;" edge="1" parent="1" source="daJVjkobpXh8JB62FJom-9" target="daJVjkobpXh8JB62FJom-34">
          <mxGeometry relative="1" as="geometry">
            <mxPoint x="685" y="285" as="targetPoint" />
          </mxGeometry>
        </mxCell>
        <mxCell id="daJVjkobpXh8JB62FJom-9" value="Dashboard with multiple Tabs&#xa;" style="swimlane;startSize=0;" vertex="1" parent="1">
          <mxGeometry x="580" y="40" width="210" height="200" as="geometry" />
        </mxCell>
        <mxCell id="daJVjkobpXh8JB62FJom-13" value="Dashboard showing Team&#39;s Capacity and achievements" style="text;html=1;strokeColor=none;fillColor=none;align=center;verticalAlign=middle;whiteSpace=wrap;rounded=0;" vertex="1" parent="daJVjkobpXh8JB62FJom-9">
          <mxGeometry x="20" y="30" width="170" height="30" as="geometry" />
        </mxCell>
        <mxCell id="daJVjkobpXh8JB62FJom-14" value="Interactive Actions to approve or Decline the Achivements&amp;nbsp;" style="text;html=1;strokeColor=none;fillColor=none;align=center;verticalAlign=middle;whiteSpace=wrap;rounded=0;" vertex="1" parent="daJVjkobpXh8JB62FJom-9">
          <mxGeometry y="80" width="200" height="30" as="geometry" />
        </mxCell>
        <mxCell id="daJVjkobpXh8JB62FJom-15" value="Record Own Certification / Along with previously approved/ declined certification" style="text;html=1;strokeColor=none;fillColor=none;align=center;verticalAlign=middle;whiteSpace=wrap;rounded=0;" vertex="1" parent="daJVjkobpXh8JB62FJom-9">
          <mxGeometry x="20" y="130" width="180" height="30" as="geometry" />
        </mxCell>
        <mxCell id="daJVjkobpXh8JB62FJom-10" style="edgeStyle=orthogonalEdgeStyle;rounded=0;orthogonalLoop=1;jettySize=auto;html=1;entryX=0;entryY=0.4;entryDx=0;entryDy=0;entryPerimeter=0;" edge="1" parent="1" source="daJVjkobpXh8JB62FJom-7" target="daJVjkobpXh8JB62FJom-9">
          <mxGeometry relative="1" as="geometry" />
        </mxCell>
        <mxCell id="daJVjkobpXh8JB62FJom-35" value="Yes" style="edgeLabel;html=1;align=center;verticalAlign=middle;resizable=0;points=[];" vertex="1" connectable="0" parent="daJVjkobpXh8JB62FJom-10">
          <mxGeometry x="-0.28" y="-1" relative="1" as="geometry">
            <mxPoint as="offset" />
          </mxGeometry>
        </mxCell>
        <mxCell id="daJVjkobpXh8JB62FJom-11" style="edgeStyle=orthogonalEdgeStyle;rounded=0;orthogonalLoop=1;jettySize=auto;html=1;exitX=0.5;exitY=1;exitDx=0;exitDy=0;" edge="1" parent="1" source="daJVjkobpXh8JB62FJom-9" target="daJVjkobpXh8JB62FJom-9">
          <mxGeometry relative="1" as="geometry" />
        </mxCell>
        <mxCell id="daJVjkobpXh8JB62FJom-16" value="" style="rounded=0;whiteSpace=wrap;html=1;" vertex="1" parent="1">
          <mxGeometry x="300" y="259" width="280" height="130" as="geometry" />
        </mxCell>
        <mxCell id="daJVjkobpXh8JB62FJom-21" style="edgeStyle=orthogonalEdgeStyle;rounded=0;orthogonalLoop=1;jettySize=auto;html=1;entryX=0;entryY=0.5;entryDx=0;entryDy=0;exitX=1;exitY=0.5;exitDx=0;exitDy=0;" edge="1" parent="1" source="daJVjkobpXh8JB62FJom-16" target="daJVjkobpXh8JB62FJom-34">
          <mxGeometry relative="1" as="geometry">
            <mxPoint x="645" y="325" as="targetPoint" />
          </mxGeometry>
        </mxCell>
        <mxCell id="daJVjkobpXh8JB62FJom-18" value="Record Own Certification / Along with previously approved/ declined certification" style="text;html=1;strokeColor=none;fillColor=none;align=center;verticalAlign=middle;whiteSpace=wrap;rounded=0;" vertex="1" parent="1">
          <mxGeometry x="320" y="310" width="250" height="30" as="geometry" />
        </mxCell>
        <mxCell id="daJVjkobpXh8JB62FJom-23" value="" style="shape=cylinder3;whiteSpace=wrap;html=1;boundedLbl=1;backgroundOutline=1;size=15;" vertex="1" parent="1">
          <mxGeometry x="667.5" y="670" width="60" height="80" as="geometry" />
        </mxCell>
        <mxCell id="daJVjkobpXh8JB62FJom-25" value="" style="endArrow=classic;startArrow=classic;html=1;rounded=0;entryX=0.5;entryY=1;entryDx=0;entryDy=0;exitX=0.392;exitY=-0.062;exitDx=0;exitDy=0;exitPerimeter=0;" edge="1" parent="1">
          <mxGeometry width="50" height="50" relative="1" as="geometry">
            <mxPoint x="690.04" y="548.04" as="sourcePoint" />
            <mxPoint x="690" y="498" as="targetPoint" />
          </mxGeometry>
        </mxCell>
        <mxCell id="daJVjkobpXh8JB62FJom-27" value="" style="edgeStyle=orthogonalEdgeStyle;rounded=0;orthogonalLoop=1;jettySize=auto;html=1;" edge="1" parent="1" source="daJVjkobpXh8JB62FJom-26" target="daJVjkobpXh8JB62FJom-23">
          <mxGeometry relative="1" as="geometry" />
        </mxCell>
        <mxCell id="daJVjkobpXh8JB62FJom-26" value="API" style="ellipse;shape=cloud;whiteSpace=wrap;html=1;" vertex="1" parent="1">
          <mxGeometry x="625.5" y="540" width="145" height="100" as="geometry" />
        </mxCell>
        <mxCell id="daJVjkobpXh8JB62FJom-28" value="API Gateway" style="shape=ext;double=1;rounded=1;whiteSpace=wrap;html=1;" vertex="1" parent="1">
          <mxGeometry x="625" y="420" width="120" height="80" as="geometry" />
        </mxCell>
        <mxCell id="daJVjkobpXh8JB62FJom-31" style="edgeStyle=orthogonalEdgeStyle;rounded=0;orthogonalLoop=1;jettySize=auto;html=1;entryX=0.5;entryY=0;entryDx=0;entryDy=0;exitX=0.5;exitY=1;exitDx=0;exitDy=0;" edge="1" parent="1" source="daJVjkobpXh8JB62FJom-34" target="daJVjkobpXh8JB62FJom-28">
          <mxGeometry relative="1" as="geometry">
            <mxPoint x="685" y="365" as="sourcePoint" />
          </mxGeometry>
        </mxCell>
        <mxCell id="daJVjkobpXh8JB62FJom-33" style="edgeStyle=orthogonalEdgeStyle;rounded=0;orthogonalLoop=1;jettySize=auto;html=1;entryX=0;entryY=0.5;entryDx=0;entryDy=0;" edge="1" parent="1" source="daJVjkobpXh8JB62FJom-32" target="daJVjkobpXh8JB62FJom-28">
          <mxGeometry relative="1" as="geometry" />
        </mxCell>
        <mxCell id="daJVjkobpXh8JB62FJom-37" value="Access the API for resourse skills" style="edgeLabel;html=1;align=center;verticalAlign=middle;resizable=0;points=[];" vertex="1" connectable="0" parent="daJVjkobpXh8JB62FJom-33">
          <mxGeometry x="-0.1855" y="3" relative="1" as="geometry">
            <mxPoint y="1" as="offset" />
          </mxGeometry>
        </mxCell>
        <mxCell id="daJVjkobpXh8JB62FJom-32" value="Multiple Applications" style="rounded=1;whiteSpace=wrap;html=1;" vertex="1" parent="1">
          <mxGeometry x="90" y="430" width="120" height="60" as="geometry" />
        </mxCell>
        <mxCell id="daJVjkobpXh8JB62FJom-34" value="" style="shape=sumEllipse;perimeter=ellipsePerimeter;whiteSpace=wrap;html=1;backgroundOutline=1;" vertex="1" parent="1">
          <mxGeometry x="658.5" y="296" width="52.5" height="55" as="geometry" />
        </mxCell>
      </root>
    </mxGraphModel>
  </diagram>
</mxfile>
